HIERARCHY
ROOT Hips
{
	OFFSET 0.000000 0.000000 0.000000
	CHANNELS 6 Xposition Yposition Zposition Zrotation Yrotation Xrotation 
	JOINT LHipJoint
	{
		OFFSET 0.000000 0.000000 0.000000
		CHANNELS 3 Zrotation Yrotation Xrotation
		JOINT LeftUpLeg
		{
			OFFSET 1.363060 -1.794630 0.839290
			CHANNELS 3 Zrotation Yrotation Xrotation
			JOINT LeftLeg
			{
				OFFSET 2.448110 -6.726130 0.000000
				CHANNELS 3 Zrotation Yrotation Xrotation
				JOINT LeftFoot
				{
					OFFSET 2.562200 -7.039590 0.000000
					CHANNELS 3 Zrotation Yrotation Xrotation
					JOINT LeftToeBase
					{
						OFFSET 0.157640 -0.433110 2.322550
						CHANNELS 3 Zrotation Yrotation Xrotation
						End Site
						{
							OFFSET 0.000000 0.000000 0.000000
						}
					}
				}
			}
		}
	}
	JOINT RHipJoint
	{
		OFFSET 0.000000 0.000000 0.000000
		CHANNELS 3 Zrotation Yrotation Xrotation
		JOINT RightUpLeg
		{
			OFFSET -1.305520 -1.794630 0.839290
			CHANNELS 3 Zrotation Yrotation Xrotation
			JOINT RightLeg
			{
				OFFSET -2.542530 -6.985550 0.000000
				CHANNELS 3 Zrotation Yrotation Xrotation
				JOINT RightFoot
				{
					OFFSET -2.568260 -7.056230 0.000000
					CHANNELS 3 Zrotation Yrotation Xrotation
					JOINT RightToeBase
					{
						OFFSET -0.164730 -0.452590 2.363150
						CHANNELS 3 Zrotation Yrotation Xrotation
						End Site
						{
							OFFSET 0.000000 0.000000 0.000000
						}
					}
				}
			}
		}
	}
}
MOTION
Frames: 22
Frame Time: 0.008333
14.555542 16.769650 1.471337 33.493558 -88.602302 4.673688 -8.479589 -0.507306 3.159639 -4.566056 -10.997132 -48.196014 -1.719364 -0.461504 25.049817 4.003514 13.160946 -23.735546 -3.613399 0.000000 -47.466099 7.958778 1.170213 2.831337 5.130967 10.143954 -49.226976 1.976381 -0.401821 30.046788 -3.982972 -8.774662 -25.876440 2.862700 0.000000 -52.456399
14.547825 16.661566 1.470573 38.570134 -88.290143 0.905143 -8.268152 -0.529653 3.248494 -4.583358 -11.867413 -50.915420 -1.737152 -0.273974 27.715593 4.107183 12.867639 -25.203563 -3.923501 0.000000 -47.270900 8.056320 1.351722 2.903551 4.458397 10.275214 -52.344568 1.887378 -0.785521 33.331361 -3.983476 -8.346658 -27.082898 2.990900 -0.000000 -52.073000
14.539696 16.539465 1.470124 42.980297 -87.947566 -2.159202 -8.090364 -0.551189 3.357874 -4.591643 -12.733313 -53.808974 -1.738669 -0.055830 30.566901 4.202746 12.551777 -26.618348 -4.199600 0.000001 -47.005400 8.138891 1.527253 3.000434 3.752475 10.364495 -55.557565 1.788842 -1.174217 36.655042 -3.972491 -7.906779 -28.242028 3.090000 0.000000 -51.571900
14.530742 16.403118 1.470379 46.684044 -87.591507 -4.481965 -7.945054 -0.571865 3.490920 -4.571795 -13.592694 -56.867009 -1.716915 0.191414 33.585533 4.290926 12.235646 -27.955187 -4.439700 -0.000001 -46.645500 8.208807 1.698910 3.125903 3.022241 10.427369 -58.855920 1.675770 -1.564236 40.008151 -3.959025 -7.490443 -29.353448 3.169900 0.000000 -50.921400
14.520361 16.252480 1.471581 49.777535 -87.233030 -6.161492 -7.828381 -0.593176 3.650731 -4.508771 -14.446788 -60.075542 -1.666053 0.462980 36.747042 4.373854 11.942636 -29.199056 -4.647100 -0.000000 -46.161500 8.270112 1.867893 3.284692 2.270573 10.475855 -62.233758 1.543247 -1.953493 43.387216 -3.951667 -7.130507 -30.423280 3.242700 -0.000000 -50.101600
14.508466 16.088118 1.474088 52.290454 -86.881329 -7.242747 -7.737758 -0.619421 3.834602 -4.388132 -15.291251 -63.402270 -1.581969 0.753485 40.025194 4.452995 11.691622 -30.346053 -4.829100 0.000001 -45.520101 8.324610 2.035578 3.473559 1.507952 10.515328 -65.663769 1.388263 -2.340057 46.785745 -3.957657 -6.856076 -31.459200 3.321500 -0.000000 -49.114100
14.494842 15.910930 1.478178 54.289366 -86.541735 -7.807134 -7.669681 -0.655086 4.038630 -4.200896 -16.122475 -66.808264 -1.462946 1.056078 43.389089 4.530554 11.499097 -31.402539 -4.995599 -0.000000 -44.693700 8.374244 2.203083 3.687256 0.743371 10.546103 -69.113980 1.209184 -2.722364 50.196552 -3.982085 -6.687548 -32.470714 3.418700 0.000000 -47.979500
14.479525 15.722305 1.484041 55.828513 -86.216818 -7.929319 -7.620186 -0.704658 4.256607 -3.943249 -16.936234 -70.249689 -1.309576 1.364047 46.807562 4.608906 11.377866 -32.382673 -5.158199 0.000000 -43.668700 8.420213 2.371835 3.917369 -0.012819 10.564476 -72.547330 1.006050 -3.099364 53.610998 -4.027700 -6.635719 -33.468084 3.544200 -0.000000 -46.743200
14.462437 15.523870 1.491788 56.967739 -85.906339 -7.686620 -7.585049 -0.771243 4.482151 -3.616530 -17.729139 -73.681872 -1.124558 1.670942 50.248539 4.690328 11.335943 -33.304775 -5.328000 -0.000001 -42.458900 8.463805 2.542918 4.155022 -0.751359 10.564286 -75.925670 0.780066 -3.470178 57.017341 -4.094814 -6.701826 -34.459058 3.705099 -0.000000 -45.462901
14.443601 15.317705 1.501484 57.743087 -85.608939 -7.133216 -7.560351 -0.856932 4.707044 -3.226067 -18.497304 -77.057842 -0.911927 1.971358 53.681162 4.776421 11.377252 -34.186996 -5.514200 -0.000000 -41.111100 8.505810 2.717379 4.388952 -1.459938 10.538091 -79.206505 0.533842 -3.834089 60.398782 -4.181306 -6.878157 -35.446786 3.904600 0.000000 -44.225500
14.422936 15.105916 1.513066 58.210101 -85.321435 -6.338019 -7.542106 -0.961735 4.925199 -2.781388 -19.239716 -80.340042 -0.676468 2.261011 57.077200 4.868299 11.501550 -35.043786 -5.723800 -0.000000 -39.705300 8.547274 2.895673 4.611193 -2.131378 10.480263 -82.357860 0.270008 -4.190621 63.737767 -4.283431 -7.149980 -36.430853 4.142300 0.000000 -43.115801
14.400305 14.890841 1.526323 58.421464 -85.040337 -5.363574 -7.527027 -1.084212 5.131226 -2.294245 -19.956425 -83.494981 -0.423086 2.536690 60.410729 4.966023 11.704901 -35.883489 -5.960500 -0.000000 -38.343500 8.589209 3.077870 4.815091 -2.760488 10.386856 -85.351259 -0.008702 -4.539058 67.014150 -4.396207 -7.498296 -37.405436 4.414400 0.000000 -42.217700
14.375387 14.674717 1.541019 58.435240 -84.762322 -4.273439 -7.512556 -1.221663 5.321199 -1.777876 -20.649111 -86.495661 -0.156300 2.796078 63.659205 5.068873 11.981289 -36.707532 -6.225500 -0.000000 -37.132400 8.632544 3.263580 4.996591 -3.345680 10.256691 -88.165289 -0.299705 -4.878226 70.206434 -4.514356 -7.902453 -38.361522 4.714699 0.000000 -41.602300
14.348094 14.459916 1.556774 58.309085 -84.484753 -3.129084 -7.497002 -1.370599 5.492395 -1.245984 -21.319547 -89.318767 0.119716 3.037549 66.802557 5.175405 12.322769 -37.512361 -6.517300 0.000000 -36.163300 8.678055 3.452121 5.153718 -3.888303 10.091418 -90.782196 -0.600641 -5.206232 73.293020 -4.633060 -8.343490 -39.288173 5.035800 0.000001 -41.316200
14.317887 14.248582 1.573091 58.109998 -84.205140 -1.999884 -7.479205 -1.527126 5.643597 -0.713462 -21.971160 -91.946382 0.401244 3.260052 69.824508 5.284043 12.721157 -38.291439 -6.833300 -0.000000 -35.495800 8.726432 3.642606 5.287298 -4.394927 9.894990 -93.190698 -0.909578 -5.520561 76.254620 -4.748605 -8.806393 -40.174827 5.370600 -0.000000 -41.369500
14.284702 14.042939 1.589479 57.888361 -83.922384 -0.940074 -7.458898 -1.687512 5.774100 -0.194355 -22.606200 -94.360442 0.684785 3.462778 72.710061 5.393053 13.168124 -39.037361 -7.170000 0.000000 -35.155001 8.777888 3.833855 5.398745 -4.871976 9.673725 -95.378652 -1.224224 -5.817961 79.073035 -4.858791 -9.281510 -41.013681 5.713500 -0.000000 -41.741400
14.248105 13.845118 1.605399 57.684570 -83.635260 0.005556 -7.436479 -1.848160 5.884118 0.297400 -23.226762 -96.541962 0.966753 3.644919 75.444838 5.501054 13.656037 -39.744802 -7.524300 0.000000 -35.129500 8.832543 4.024202 5.490169 -5.325601 9.435289 -97.332571 -1.541903 -6.094567 81.731745 -4.963244 -9.766077 -41.800793 6.062200 0.000000 -42.379001
14.208039 13.657000 1.620252 57.534492 -83.343117 0.795082 -7.412681 -2.006212 5.974066 0.747040 -23.834351 -98.473690 1.243450 3.806224 78.017595 5.607236 14.178311 -40.412450 -7.894301 0.000000 -35.378700 8.890413 4.211703 5.564135 -5.762750 9.188722 -99.040044 -1.859901 -6.346513 84.219388 -5.063350 -10.264386 -42.537813 6.418000 0.000000 -43.204000
14.164380 13.480517 1.633535 57.455269 -83.045092 1.402758 -7.388709 -2.159037 6.044681 1.140147 -24.429506 -100.134395 1.510589 3.946315 80.415069 5.711370 14.729130 -41.044274 -8.279500 0.000000 -35.836800 8.951528 4.393804 5.622230 -6.186119 8.943696 -100.483308 -2.174566 -6.569793 86.525085 -5.161824 -10.785967 -43.231019 6.786100 0.000000 -44.126100
14.117209 13.317374 1.644767 57.452385 -82.740833 1.813387 -7.366128 -2.304484 6.096862 1.462386 -25.011222 -101.503368 1.763467 4.065391 82.625644 5.813635 15.302459 -41.650065 -8.681100 -0.000000 -36.421300 9.016009 4.567461 5.665333 -6.594930 8.710519 -101.644040 -2.481823 -6.761052 88.641930 -5.262246 -11.343899 -43.891257 7.174899 0.000000 -45.054400
14.066651 13.169131 1.653668 57.512512 -82.430574 2.028865 -7.346696 -2.440713 6.131496 1.701349 -25.576829 -102.561743 1.997195 4.164163 84.638711 5.914647 15.892668 -42.244862 -9.102200 -0.000001 -37.039699 9.083861 4.729505 5.692839 -6.983507 8.499551 -102.504106 -2.776993 -6.917976 90.565330 -5.368211 -11.951271 -44.531610 7.594401 0.000000 -45.910000
14.012910 13.037039 1.660235 57.589302 -82.118934 2.089536 -7.333094 -2.565666 6.150610 1.851252 -26.118520 -103.297183 2.207045 4.243840 86.444868 6.014668 16.491408 -42.846422 -9.545100 0.000001 -37.601300 9.154526 4.876188 5.703214 -7.337422 8.324176 -103.048309 -3.054395 -7.039192 92.290331 -5.483159 -12.619205 -45.165578 8.054601 0.000000 -46.632200
